<?xml version="1.0" encoding="UTF-8"?>
<svg version="1.1" xmlns="http://www.w3.org/2000/svg" width="480" height="480">
<path d="M0 0 C19.8 0 39.6 0 60 0 C60 4.95 60 9.9 60 15 C69.9 15 79.8 15 90 15 C90 39.75 90 64.5 90 90 C85.05 90 80.1 90 75 90 C75 94.95 75 99.9 75 105 C84.9 105 94.8 105 105 105 C105 124.8 105 144.6 105 165 C95.1 165 85.2 165 75 165 C75 174.9 75 184.8 75 195 C79.95 195 84.9 195 90 195 C90 199.95 90 204.9 90 210 C94.95 210 99.9 210 105 210 C105 214.95 105 219.9 105 225 C109.95 225 114.9 225 120 225 C120 229.95 120 234.9 120 240 C124.95 240 129.9 240 135 240 C135 289.5 135 339 135 390 C130.05 390 125.1 390 120 390 C120 394.95 120 399.9 120 405 C115.05 405 110.1 405 105 405 C105 409.95 105 414.9 105 420 C100.05 420 95.1 420 90 420 C90 424.95 90 429.9 90 435 C70.2 435 50.4 435 30 435 C30 439.95 30 444.9 30 450 C-9.6 450 -49.2 450 -90 450 C-90 454.95 -90 459.9 -90 465 C-144.45 465 -198.9 465 -255 465 C-255 455.1 -255 445.2 -255 435 C-259.95 435 -264.9 435 -270 435 C-270 420.15 -270 405.3 -270 390 C-265.05 390 -260.1 390 -255 390 C-255 385.05 -255 380.1 -255 375 C-250.05 375 -245.1 375 -240 375 C-240 350.25 -240 325.5 -240 300 C-244.95 300 -249.9 300 -255 300 C-255 295.05 -255 290.1 -255 285 C-259.95 285 -264.9 285 -270 285 C-270 280.05 -270 275.1 -270 270 C-274.95 270 -279.9 270 -285 270 C-285 265.05 -285 260.1 -285 255 C-289.95 255 -294.9 255 -300 255 C-300 245.1 -300 235.2 -300 225 C-304.95 225 -309.9 225 -315 225 C-315 205.2 -315 185.4 -315 165 C-310.05 165 -305.1 165 -300 165 C-300 155.1 -300 145.2 -300 135 C-225.75 135 -151.5 135 -75 135 C-75 130.05 -75 125.1 -75 120 C-79.95 120 -84.9 120 -90 120 C-90 105.15 -90 90.3 -90 75 C-85.05 75 -80.1 75 -75 75 C-75 65.1 -75 55.2 -75 45 C-60.15 45 -45.3 45 -30 45 C-30 49.95 -30 54.9 -30 60 C-25.05 60 -20.1 60 -15 60 C-15 50.1 -15 40.2 -15 30 C-10.05 30 -5.1 30 0 30 C0 20.1 0 10.2 0 0 Z " fill="#202374" transform="translate(345,15)"/>
<path d="M0 0 C19.8 0 39.6 0 60 0 C60 4.95 60 9.9 60 15 C69.9 15 79.8 15 90 15 C90 39.75 90 64.5 90 90 C85.05 90 80.1 90 75 90 C75 94.95 75 99.9 75 105 C84.9 105 94.8 105 105 105 C105 124.8 105 144.6 105 165 C95.1 165 85.2 165 75 165 C75 174.9 75 184.8 75 195 C65.1 195 55.2 195 45 195 C45 190.05 45 185.1 45 180 C35.1 180 25.2 180 15 180 C15 175.05 15 170.1 15 165 C-4.8 165 -24.6 165 -45 165 C-45 160.05 -45 155.1 -45 150 C-124.2 150 -203.4 150 -285 150 C-285 154.95 -285 159.9 -285 165 C-270.15 165 -255.3 165 -240 165 C-240 169.95 -240 174.9 -240 180 C-230.1 180 -220.2 180 -210 180 C-210 184.95 -210 189.9 -210 195 C-200.1 195 -190.2 195 -180 195 C-180 199.95 -180 204.9 -180 210 C-170.1 210 -160.2 210 -150 210 C-150 214.95 -150 219.9 -150 225 C-145.05 225 -140.1 225 -135 225 C-135 229.95 -135 234.9 -135 240 C-130.05 240 -125.1 240 -120 240 C-120 244.95 -120 249.9 -120 255 C-115.05 255 -110.1 255 -105 255 C-105 264.9 -105 274.8 -105 285 C-100.05 285 -95.1 285 -90 285 C-90 304.8 -90 324.6 -90 345 C-94.95 345 -99.9 345 -105 345 C-105 354.9 -105 364.8 -105 375 C-109.95 375 -114.9 375 -120 375 C-120 379.95 -120 384.9 -120 390 C-124.95 390 -129.9 390 -135 390 C-135 394.95 -135 399.9 -135 405 C-144.9 405 -154.8 405 -165 405 C-165 409.95 -165 414.9 -165 420 C-179.85 420 -194.7 420 -210 420 C-210 424.95 -210 429.9 -210 435 C-219.9 435 -229.8 435 -240 435 C-240 439.95 -240 444.9 -240 450 C-190.5 450 -141 450 -90 450 C-90 454.95 -90 459.9 -90 465 C-144.45 465 -198.9 465 -255 465 C-255 455.1 -255 445.2 -255 435 C-259.95 435 -264.9 435 -270 435 C-270 420.15 -270 405.3 -270 390 C-265.05 390 -260.1 390 -255 390 C-255 385.05 -255 380.1 -255 375 C-250.05 375 -245.1 375 -240 375 C-240 350.25 -240 325.5 -240 300 C-244.95 300 -249.9 300 -255 300 C-255 295.05 -255 290.1 -255 285 C-259.95 285 -264.9 285 -270 285 C-270 280.05 -270 275.1 -270 270 C-274.95 270 -279.9 270 -285 270 C-285 265.05 -285 260.1 -285 255 C-289.95 255 -294.9 255 -300 255 C-300 245.1 -300 235.2 -300 225 C-304.95 225 -309.9 225 -315 225 C-315 205.2 -315 185.4 -315 165 C-310.05 165 -305.1 165 -300 165 C-300 155.1 -300 145.2 -300 135 C-225.75 135 -151.5 135 -75 135 C-75 130.05 -75 125.1 -75 120 C-79.95 120 -84.9 120 -90 120 C-90 105.15 -90 90.3 -90 75 C-85.05 75 -80.1 75 -75 75 C-75 65.1 -75 55.2 -75 45 C-60.15 45 -45.3 45 -30 45 C-30 49.95 -30 54.9 -30 60 C-25.05 60 -20.1 60 -15 60 C-15 50.1 -15 40.2 -15 30 C-10.05 30 -5.1 30 0 30 C0 20.1 0 10.2 0 0 Z " fill="#000000" transform="translate(345,15)"/>
<path d="M0 0 C24.75 0 49.5 0 75 0 C75 24.75 75 49.5 75 75 C70.05 75 65.1 75 60 75 C60 79.95 60 84.9 60 90 C55.05 90 50.1 90 45 90 C45 94.95 45 99.9 45 105 C25.2 105 5.4 105 -15 105 C-15 109.95 -15 114.9 -15 120 C-104.1 120 -193.2 120 -285 120 C-285 115.05 -285 110.1 -285 105 C-275.1 105 -265.2 105 -255 105 C-255 100.05 -255 95.1 -255 90 C-240.15 90 -225.3 90 -210 90 C-210 85.05 -210 80.1 -210 75 C-200.1 75 -190.2 75 -180 75 C-180 70.05 -180 65.1 -180 60 C-175.05 60 -170.1 60 -165 60 C-165 55.05 -165 50.1 -165 45 C-160.05 45 -155.1 45 -150 45 C-150 40.05 -150 35.1 -150 30 C-125.25 30 -100.5 30 -75 30 C-75 25.05 -75 20.1 -75 15 C-50.25 15 -25.5 15 0 15 C0 10.05 0 5.1 0 0 Z " fill="#707898" transform="translate(390,345)"/>
<path d="M0 0 C14.85 0 29.7 0 45 0 C45 4.95 45 9.9 45 15 C59.85 15 74.7 15 90 15 C90 19.95 90 24.9 90 30 C94.95 30 99.9 30 105 30 C105 34.95 105 39.9 105 45 C114.9 45 124.8 45 135 45 C135 49.95 135 54.9 135 60 C139.95 60 144.9 60 150 60 C150 64.95 150 69.9 150 75 C154.95 75 159.9 75 165 75 C165 79.95 165 84.9 165 90 C169.95 90 174.9 90 180 90 C180 99.9 180 109.8 180 120 C184.95 120 189.9 120 195 120 C195 129.9 195 139.8 195 150 C190.05 150 185.1 150 180 150 C180 159.9 180 169.8 180 180 C175.05 180 170.1 180 165 180 C165 184.95 165 189.9 165 195 C160.05 195 155.1 195 150 195 C150 199.95 150 204.9 150 210 C140.1 210 130.2 210 120 210 C120 214.95 120 219.9 120 225 C105.15 225 90.3 225 75 225 C75 229.95 75 234.9 75 240 C65.1 240 55.2 240 45 240 C45 235.05 45 230.1 45 225 C49.95 225 54.9 225 60 225 C60 220.05 60 215.1 60 210 C64.95 210 69.9 210 75 210 C75 175.35 75 140.7 75 105 C70.05 105 65.1 105 60 105 C60 100.05 60 95.1 60 90 C55.05 90 50.1 90 45 90 C45 85.05 45 80.1 45 75 C40.05 75 35.1 75 30 75 C30 70.05 30 65.1 30 60 C25.05 60 20.1 60 15 60 C15 50.1 15 40.2 15 30 C10.05 30 5.1 30 0 30 C0 20.1 0 10.2 0 0 Z " fill="#07081A" transform="translate(45,195)"/>
<path d="M0 0 C14.85 0 29.7 0 45 0 C45 9.9 45 19.8 45 30 C49.95 30 54.9 30 60 30 C60 34.95 60 39.9 60 45 C64.95 45 69.9 45 75 45 C75 49.95 75 54.9 75 60 C79.95 60 84.9 60 90 60 C90 64.95 90 69.9 90 75 C94.95 75 99.9 75 105 75 C105 124.5 105 174 105 225 C95.1 225 85.2 225 75 225 C75 229.95 75 234.9 75 240 C65.1 240 55.2 240 45 240 C45 235.05 45 230.1 45 225 C49.95 225 54.9 225 60 225 C60 220.05 60 215.1 60 210 C64.95 210 69.9 210 75 210 C75 175.35 75 140.7 75 105 C70.05 105 65.1 105 60 105 C60 100.05 60 95.1 60 90 C55.05 90 50.1 90 45 90 C45 85.05 45 80.1 45 75 C40.05 75 35.1 75 30 75 C30 70.05 30 65.1 30 60 C25.05 60 20.1 60 15 60 C15 50.1 15 40.2 15 30 C10.05 30 5.1 30 0 30 C0 20.1 0 10.2 0 0 Z " fill="#0A0B27" transform="translate(45,195)"/>
<path d="M0 0 C4.95 0 9.9 0 15 0 C15 4.95 15 9.9 15 15 C19.95 15 24.9 15 30 15 C30 19.95 30 24.9 30 30 C34.95 30 39.9 30 45 30 C45 34.95 45 39.9 45 45 C54.9 45 64.8 45 75 45 C75 49.95 75 54.9 75 60 C99.75 60 124.5 60 150 60 C150 69.9 150 79.8 150 90 C145.05 90 140.1 90 135 90 C135 94.95 135 99.9 135 105 C130.05 105 125.1 105 120 105 C120 100.05 120 95.1 120 90 C110.1 90 100.2 90 90 90 C90 85.05 90 80.1 90 75 C75.15 75 60.3 75 45 75 C45 70.05 45 65.1 45 60 C30.15 60 15.3 60 0 60 C0 55.05 0 50.1 0 45 C-4.95 45 -9.9 45 -15 45 C-15 40.05 -15 35.1 -15 30 C-10.05 30 -5.1 30 0 30 C0 20.1 0 10.2 0 0 Z " fill="#1E1E20" transform="translate(285,75)"/>
<path d="M0 0 C9.9 0 19.8 0 30 0 C30 4.95 30 9.9 30 15 C39.9 15 49.8 15 60 15 C60 29.85 60 44.7 60 60 C55.05 60 50.1 60 45 60 C45 64.95 45 69.9 45 75 C30.15 75 15.3 75 0 75 C0 70.05 0 65.1 0 60 C-4.95 60 -9.9 60 -15 60 C-15 50.1 -15 40.2 -15 30 C-10.05 30 -5.1 30 0 30 C0 20.1 0 10.2 0 0 Z " fill="#1E1E20" transform="translate(360,30)"/>
<path d="M0 0 C4.95 0 9.9 0 15 0 C15 49.5 15 99 15 150 C10.05 150 5.1 150 0 150 C0 100.5 0 51 0 0 Z " fill="#000000" transform="translate(465,255)"/>
<path d="M0 0 C14.85 0 29.7 0 45 0 C45 4.95 45 9.9 45 15 C54.9 15 64.8 15 75 15 C75 19.95 75 24.9 75 30 C79.95 30 84.9 30 90 30 C90 34.95 90 39.9 90 45 C75.15 45 60.3 45 45 45 C45 40.05 45 35.1 45 30 C35.1 30 25.2 30 15 30 C15 25.05 15 20.1 15 15 C10.05 15 5.1 15 0 15 C0 10.05 0 5.1 0 0 Z " fill="#600101" transform="translate(315,90)"/>
<path d="M0 0 C39.6 0 79.2 0 120 0 C120 4.95 120 9.9 120 15 C80.4 15 40.8 15 0 15 C0 10.05 0 5.1 0 0 Z " fill="#000000" transform="translate(255,450)"/>
<path d="M0 0 C19.8 0 39.6 0 60 0 C60 4.95 60 9.9 60 15 C40.2 15 20.4 15 0 15 C0 10.05 0 5.1 0 0 Z " fill="#000000" transform="translate(375,435)"/>
<path d="M0 0 C4.95 0 9.9 0 15 0 C15 4.95 15 9.9 15 15 C10.05 15 5.1 15 0 15 C0 10.05 0 5.1 0 0 Z " fill="#000000" transform="translate(435,420)"/>
<path d="M0 0 C4.95 0 9.9 0 15 0 C15 4.95 15 9.9 15 15 C10.05 15 5.1 15 0 15 C0 10.05 0 5.1 0 0 Z " fill="#000000" transform="translate(450,405)"/>
<path d="M0 0 C4.95 0 9.9 0 15 0 C15 4.95 15 9.9 15 15 C10.05 15 5.1 15 0 15 C0 10.05 0 5.1 0 0 Z " fill="#000000" transform="translate(450,240)"/>
<path d="M0 0 C4.95 0 9.9 0 15 0 C15 4.95 15 9.9 15 15 C10.05 15 5.1 15 0 15 C0 10.05 0 5.1 0 0 Z " fill="#000000" transform="translate(435,225)"/>
<path d="M0 0 C4.95 0 9.9 0 15 0 C15 4.95 15 9.9 15 15 C10.05 15 5.1 15 0 15 C0 10.05 0 5.1 0 0 Z " fill="#000000" transform="translate(420,210)"/>
<path d="M0 0 C4.95 0 9.9 0 15 0 C15 4.95 15 9.9 15 15 C10.05 15 5.1 15 0 15 C0 10.05 0 5.1 0 0 Z " fill="#000000" transform="translate(255,210)"/>
</svg>
